<svg width="672" height="648" viewBox="0 0 672 648" fill="none" xmlns="http://www.w3.org/2000/svg">
<g id="Simeon_svg">
<path id="neck" fill-rule="evenodd" clip-rule="evenodd" d="M474 127C476.076 127.372 475.924 127.242 477 128C480.578 133.418 480.34 140.7 483 147C486.776 155.943 492.233 168.1 498 176C502.912 182.725 515.752 185.028 519 193L516 202C507.785 214.766 490.986 225.052 475 230C469.174 231.8 456.5 235.182 451 231C448.785 228.893 447.229 226.092 445 224C449.663 213.947 456.441 205.152 462 196C466.146 189.174 467.062 182.066 470 174C470.327 173.1 472.867 170.113 473 169C473.857 161.814 465.456 149.239 465 140C470.129 137 471.675 130.018 474 127Z" fill="#FBBAA6"/>
<path id="pants" fill-rule="evenodd" clip-rule="evenodd" d="M603 648H319L326 591L328 590H333C345.542 605.86 371.376 601.688 396 606C450.422 615.529 518.606 614.35 567 605L592 597C594.133 598.786 594.433 598.352 596 601L603 648Z" fill="black"/>
<path id="left hand" fill-rule="evenodd" clip-rule="evenodd" d="M299 328C309.844 329.894 359.174 379.211 356 390C346.756 406.917 306.049 454.205 287 459C237.328 471.5 166.273 447.043 130 439C109.513 434.457 60.932 443.832 48 435C39.382 430.95 28.045 411.85 33 400L40 392C28.329 391.628 17.375 392.732 4 390L0 385C0.333333 383.333 0.666667 381.667 1 380C13.93 376.037 22.55 382.581 38 381L68 373C83.141 376.395 94.934 387.451 107 393C136.077 406.373 191.211 407.09 226 400L263 396C279.608 387.429 288.376 345.054 299 328Z" fill="#DFA28F"/>
<path id="shirt" fill-rule="evenodd" clip-rule="evenodd" d="M519 192C549.428 197.662 614.073 215.585 628 237C634.757 247.39 635.964 259.5 641 272C645.422 282.978 658.314 301.9 652 316C643.681 317.228 639 323.4 632 326L601 330L576 331C574.955 331.969 577.307 394.4 578 408C580.436 455.8 571.4 481.254 582 522C587.17 541.867 605.946 581.611 594 605C523.327 607.362 468.416 630.884 403 614C377.088 607.312 341.791 609.544 327 590C335.886 539.507 362.815 501.415 363 441C363.072 417.449 372.46 396.532 360 379H359C358.333 382.333 357.667 385.667 357 389L352 390C341.325 378.074 303.647 347.6 297 332C295.122 322.781 302.384 314.169 305 306C323.561 248.052 335.948 232.6 397 217C408.4 214.087 416.574 204.084 431 205C432.921 215.631 438.5 218.808 448 222C482.262 233.514 504.616 214.487 519 192Z" fill="#013F6C"/>
<path id="right hand" fill-rule="evenodd" clip-rule="evenodd" d="M654 313C653.717 352.3 678.408 390.226 670 436C667.127 451.642 658.8 480.879 641 476L609 460C564.453 439.894 519.912 408.532 482 380C473.434 373.553 467.21 364.234 457 359C436.108 348.29 406.141 355.411 386 344C375.345 337.963 377.471 316.087 374 307C378.639 300.034 374.189 296.942 377 288C428.623 270.262 447.706 301.146 482 322C511.6 340 539.97 354.437 575 367C572.6 354.742 573.791 342.883 574 329L629 323C638.608 320.3 642.264 313.685 654 313Z" fill="#DFA28F"/>
<path id="face" fill-rule="evenodd" clip-rule="evenodd" d="M418.963 58.001C442.996 57.8369 433.03 77.9141 440.8 93.0811L452.239 103.399C454.11 106.066 459.791 146.473 457.438 157.051C454.884 168.533 446.17 170.171 438.72 176.654C419.159 193.678 420.37 216.48 385.687 198.321C382.191 179.249 369.924 169.093 365.93 156.019C361.007 139.903 353.33 87.9408 361.77 71.414L418.963 58.001Z" fill="#EDAF9C"/>
<path id="beard" fill-rule="evenodd" clip-rule="evenodd" d="M465 140C465.885 149.837 471.733 157.805 473 167C474.55 178.241 454 208.381 449 216C447.258 218.652 443.795 224.3 441.5 226.5C435.743 232.01 410.438 248.775 400 242C388.084 234.265 383.829 207.056 385 194C390.086 195.105 391.406 198.761 396 200C402.89 201.859 408.975 197.768 415 197C420.084 189.229 426.089 179.094 433 173C440.819 166.105 449.8 165.938 450 151C454.073 143.838 446.557 123.218 448 114L455 113V115C460 123.8 457.5 128.5 465 140Z" fill="black"/>
<path id="hair sides" fill-rule="evenodd" clip-rule="evenodd" d="M450.233 33C452.366 33.3632 452.21 33.2363 453.315 33.9765C470.267 48.3111 478.803 70.0922 479 100.376H477.973C474.479 96.1327 472.014 94.378 463.589 94.5176C462.54 95.2988 463.308 94.8643 461.534 95.4941C459.909 98.0866 456.416 100.35 455.37 103.306C452.374 111.771 459.107 115.789 447.151 116V115.024H446.123C446.082 101.232 438.436 103.41 433.795 95.4941C429.226 87.7029 428.999 74.8437 426.603 65.2235C417.735 59.726 416.578 61.841 406.055 61.3176C404.961 58.5074 404.299 58.7183 404 54.4824C415.238 51.5266 443.362 40.0892 450.233 33Z" fill="#5D5D5D"/>
<path id="ear" fill-rule="evenodd" clip-rule="evenodd" d="M462.905 94.789L465.723 93.4915L469.017 93.0117L471.845 93.5285L474.61 94.8598C487.777 109.397 479.277 133.054 466.55 142.275L461.757 140.525C451.755 125.034 447.5 99 462.905 94.789Z" fill="#EAAC99"/>
<path id="hair top" fill-rule="evenodd" clip-rule="evenodd" d="M450.926 0C460.961 1.17378 470.46 6.58456 472 16.8889C470.212 19.7114 471.507 22.9288 472 26.3889C464.105 31.1167 461.643 29.2188 453.937 31.6667C453.945 35.0043 455.637 33.0864 452.933 34.8333C444.269 44.1412 432.277 46.0317 419.817 51.7222C417.518 52.7778 409.581 55.9444 407.775 58.0556C406.086 60.0337 407.042 63.0167 404.764 64.3889C396.536 69.3416 382.449 66.0831 372.652 69.6667C368.193 71.2975 366.022 75.1946 359.606 76C359.521 73.5786 354.265 69.4186 356.596 63.3333C364.305 43.2123 385.759 27.702 405.768 20.0556C416.023 16.1373 433.24 18.8332 440.891 12.6667C442.366 10.9778 441.564 9.62139 442.898 7.38889C444.41 4.85556 448.907 2.36867 450.926 0Z" fill="#070D14"/>
</g>
</svg>
